<?xml version="1.0" encoding="UTF-8"?>
<svg version="1.1" xmlns="http://www.w3.org/2000/svg" width="500" height="499">
<path d="M0 0 C0 3.3 0 6.6 0 10 C-17.80968694 21.32782514 -38.00778954 27.50114395 -57.9387207 34.01879883 C-64.79803291 36.26192991 -71.63110942 38.55474264 -78.4296875 40.9765625 C-84.10284523 42.99699052 -89.79270522 44.94926068 -95.515625 46.82421875 C-96.22247437 47.05588745 -96.92932373 47.28755615 -97.65759277 47.52624512 C-99.10779612 48.00134984 -100.55801192 48.47641653 -102.00823975 48.95144653 C-116.46958667 53.69964586 -130.73354746 58.79575262 -144.9296875 64.29296875 C-150.3681073 66.39496717 -155.83753028 68.39019458 -161.32957458 70.34721375 C-177.02097184 75.94520586 -192.21173799 82.34340104 -207.34716797 89.32519531 C-211.08473638 91.04473568 -214.83898691 92.72561355 -218.59765625 94.3984375 C-219.223909 94.67716705 -219.85016174 94.95589661 -220.49539185 95.24307251 C-221.11856293 95.52041229 -221.74173401 95.79775208 -222.38378906 96.08349609 C-251.46322172 108.83431212 -251.46322172 108.83431212 -279 124.5625 C-282.7523229 126.98656701 -286.74004429 128.86093249 -290.75 130.8125 C-306.28029953 138.44299399 -318.54544506 148.19135708 -329 162 C-329.51925049 162.6585498 -330.03850098 163.31709961 -330.57348633 163.99560547 C-334.70364574 169.23705174 -338.5751562 174.59785308 -342.3125 180.125 C-342.87807617 180.95845947 -343.44365234 181.79191895 -344.02636719 182.65063477 C-345.16499569 184.33041755 -346.30223656 186.01114189 -347.43798828 187.69287109 C-348.77136296 189.66229758 -350.11500001 191.62388642 -351.46484375 193.58203125 C-370.00998201 220.66639326 -385.79021419 249.62738843 -400 279.1875 C-400.3911499 279.99952881 -400.7822998 280.81155762 -401.18530273 281.64819336 C-403.24409809 286.03723725 -404.80476367 290.29998212 -406 295 C-407.47906892 295.02689216 -408.95827483 295.04634621 -410.4375 295.0625 C-411.26121094 295.07410156 -412.08492188 295.08570313 -412.93359375 295.09765625 C-415 295 -415 295 -416 294 C-417.74873677 282.56685532 -413.65267245 274.64934058 -408.4375 264.9375 C-407.72356453 263.55785258 -407.01196257 262.17699504 -406.30273438 260.79492188 C-402.6269297 253.68493708 -398.71526286 246.74894722 -394.63427734 239.86279297 C-392.41916559 235.98254194 -390.47491908 231.98688222 -388.50537109 227.97802734 C-385.97537678 222.97302076 -383.15305543 218.1461061 -380.3125 213.3125 C-379.705271 212.27520752 -379.09804199 211.23791504 -378.47241211 210.16918945 C-373.59748688 201.89695688 -368.48181593 193.80988996 -363.18554688 185.80273438 C-360.40227438 181.57050948 -357.70863824 177.28020309 -355 173 C-355.83402344 173.5775 -356.66804688 174.155 -357.52734375 174.75 C-364.0338548 179.09897679 -368.90930147 182.21360478 -377 181 C-378.61350597 179.38649403 -378.55433288 177.73056395 -378.8125 175.5 C-378.75070297 171.86427484 -378.42029419 170.45347531 -375.921875 167.7578125 C-373.31154171 165.81076062 -370.6540166 163.99246004 -367.90820312 162.2421875 C-365.90006031 160.93494203 -363.9576164 159.5597375 -362.015625 158.15625 C-354.91016592 153.02174572 -347.69498738 148.10207326 -340.3125 143.375 C-338.20267066 142.01391274 -336.09427903 140.65065875 -333.98730469 139.28515625 C-332.71210462 138.46050598 -331.43431972 137.63983128 -330.15332031 136.82421875 C-319.88757864 130.23330683 -312.04810483 122.05045158 -303.87792969 113.04492188 C-293.17142579 101.38635757 -281.28397039 91.30705181 -268.98828125 81.375 C-265.92341092 78.84045555 -263.26233318 76.22233817 -260.6875 73.1875 C-250.02877058 60.72862961 -236.57778966 51.28889483 -222 44 C-220.29297265 43.93003986 -218.58331997 43.91559846 -216.875 43.9375 C-215.96492187 43.94652344 -215.05484375 43.95554688 -214.1171875 43.96484375 C-213.41851562 43.97644531 -212.71984375 43.98804688 -212 44 C-211.03720675 47.9505088 -210.89836438 51.0634887 -212 55 C-215.61093721 58.83894059 -219.69309811 61.69592767 -224.04101562 64.64599609 C-227.10478062 66.76359837 -230.00965586 69.0752911 -232.9375 71.375 C-237.22492818 74.68088352 -241.55968993 77.90210926 -246 81 C-244.35 81.66 -242.7 82.32 -241 83 C-241 84.65 -241 86.3 -241 88 C-240.13874512 87.62415771 -239.27749023 87.24831543 -238.39013672 86.86108398 C-206.26430119 72.86631712 -173.80855966 59.90592995 -140.81695557 48.09532166 C-136.51010716 46.55097124 -132.21662206 44.974047 -127.9296875 43.375 C-112.51814934 37.63252174 -97.01149667 32.22296322 -81.4375 26.9375 C-80.41989594 26.59199097 -79.40229187 26.24648193 -78.35385132 25.89050293 C-69.31088051 22.82138873 -60.26570976 19.7589579 -51.21231079 16.72073364 C-1.38852996 -0.01983614 -1.38852996 -0.01983614 0 0 Z " fill="#FFFFFF" transform="translate(447,142)"/>
<path d="M0 0 C2.97 0 5.94 0 9 0 C10.86928633 3.73857266 10.52917167 7.92795944 10 12 C5.04687495 19.78348221 -6.9014862 23.48663098 -15.53125 25.5078125 C-19.08048231 26.01141979 -22.47863404 26.10336466 -26.05566406 26.14770508 C-34.62577708 26.28375187 -39.60358124 26.9986532 -46.32421875 32.7890625 C-52.32719704 37.74918763 -60.29937678 42.34282323 -68.1875 42.625 C-72 42 -72 42 -73.73828125 40.7734375 C-75.4058104 38.42960396 -75.22795827 36.81148536 -75 34 C-76.04800781 34.02320313 -77.09601563 34.04640625 -78.17578125 34.0703125 C-79.55468037 34.08907303 -80.9335872 34.10727293 -82.3125 34.125 C-83.00279297 34.14175781 -83.69308594 34.15851563 -84.40429688 34.17578125 C-88.17135396 34.21217794 -89.78431704 34.14378864 -93 32 C-93.86976337 27.13402655 -93.75490774 22.47836099 -91.5 18.0625 C-85.7972545 13.35773496 -80.63411951 11.22474217 -73.14453125 11.546875 C-71 12 -71 12 -68.875 14.1875 C-68.00440156 16.98585214 -67.75071575 19.09168371 -68 22 C-62.47171529 23.29131908 -62.47171529 23.29131908 -57.38696289 21.8984375 C-56.4393811 21.14433594 -56.4393811 21.14433594 -55.47265625 20.375 C-41.3686235 9.52462837 -41.3686235 9.52462837 -32.90625 10.48046875 C-31 11 -31 11 -30 12 C-20.39519552 13.129977 -10.18929612 8.80676077 -2 4 C-1.34 2.68 -0.68 1.36 0 0 Z " fill="#FFFFFF" transform="translate(384,209)"/>
<path d="M0 0 C1.57922406 1.57922406 1.207659 3.19443874 1.25 5.375 C1.27578125 6.16648438 1.3015625 6.95796875 1.328125 7.7734375 C0.90388527 10.6522071 0.31326866 11.24210408 -2 13 C-5.16699219 13.87548828 -5.16699219 13.87548828 -9.046875 14.5703125 C-9.73630188 14.69687225 -10.42572876 14.82343201 -11.13604736 14.9538269 C-13.33886116 15.35530859 -15.54421908 15.74019237 -17.75 16.125 C-19.21894115 16.39087317 -20.68769391 16.6577894 -22.15625 16.92578125 C-39.93910014 20.1442821 -39.93910014 20.1442821 -46.5625 20.125 C-47.89474609 20.12886719 -47.89474609 20.12886719 -49.25390625 20.1328125 C-52 20 -52 20 -55.0078125 19.3046875 C-58.83958661 18.91450685 -60.17198024 19.84118346 -63.3125 22 C-64.26769531 22.65226562 -65.22289062 23.30453125 -66.20703125 23.9765625 C-70.22483825 26.88736533 -74.14859257 29.87234698 -78 33 C-79.39992188 34.12148437 -79.39992188 34.12148437 -80.828125 35.265625 C-89.08486181 41.61642779 -89.08486181 41.61642779 -95.5625 49.625 C-97.21434665 52.35413794 -98.13602997 53.56801498 -101 55 C-104.02164594 55.29207474 -106.97967789 55.31857353 -110 55 C-111.59881873 53.40118127 -111.4383627 51.77795389 -111.625 49.5625 C-111.53877118 43.49199101 -108.90816977 40.71295735 -104.73046875 36.5546875 C-103.37888672 35.29011719 -103.37888672 35.29011719 -102 34 C-101.12988281 33.13632813 -100.25976562 32.27265625 -99.36328125 31.3828125 C-70.75846054 3.85516077 -70.75846054 3.85516077 -55.5625 2.75 C-52 3 -52 3 -50.23828125 4.55078125 C-47.00469592 6.64442899 -44.25746143 5.98846281 -40.625 5.4375 C-39.89474609 5.34033691 -39.16449219 5.24317383 -38.41210938 5.14306641 C-31.1508108 4.13017884 -23.93872085 2.76834483 -16.75244141 1.32202148 C-11.0592124 0.21422054 -5.80434116 -0.26699969 0 0 Z " fill="#FFFFFF" transform="translate(375,143)"/>
<path d="M0 0 C0.78503906 -0.01675781 1.57007813 -0.03351563 2.37890625 -0.05078125 C3.39791016 0.12904297 3.39791016 0.12904297 4.4375 0.3125 C7.71756355 5.23259532 6.95904875 10.56258601 6.4375 16.3125 C4.75311424 23.35050103 1.56389934 29.41039603 -2.5625 35.3125 C-1.9025 35.3125 -1.2425 35.3125 -0.5625 35.3125 C-0.5625 38.6125 -0.5625 41.9125 -0.5625 45.3125 C-3.5625 46.3125 -3.5625 46.3125 -7.4375 46 C-9.56745903 45.9025278 -9.56745903 45.9025278 -11.5625 46.3125 C-13.94086298 48.743218 -13.94086298 48.743218 -15.2109375 50.6484375 C-18.59975706 54.82079916 -24.35847317 57.95256328 -29.68359375 58.55078125 C-35.92210347 58.75066605 -35.92210347 58.75066605 -38.9375 56.6875 C-40.77350645 54.00410595 -42.18856383 51.25664893 -43.5625 48.3125 C-43.8925 47.9825 -44.2225 47.6525 -44.5625 47.3125 C-45.60610002 40.77814079 -44.99598243 36.16318116 -41.1875 30.6875 C-38.0023977 26.53244885 -38.0023977 26.53244885 -35.5625 25.3125 C-33.6875 25.14453125 -33.6875 25.14453125 -31.5625 25.125 C-30.86125 25.11082031 -30.16 25.09664062 -29.4375 25.08203125 C-27.5625 25.3125 -27.5625 25.3125 -25.5625 27.3125 C-24.78546456 32.92315297 -25.75932307 38.01566778 -27.5625 43.3125 C-20.67317088 38.01301606 -17.71903597 33.0754624 -16.02270508 24.70263672 C-14.90761304 19.32025787 -13.21356066 14.4675389 -11 9.4375 C-10.70657715 8.75357178 -10.4131543 8.06964355 -10.11083984 7.36499023 C-7.76792776 2.16388416 -5.78364407 0.02858473 0 0 Z " fill="#FFFFFF" transform="translate(280.5625,219.6875)"/>
<path d="M0 0 C1.07507813 -0.00257813 2.15015625 -0.00515625 3.2578125 -0.0078125 C5.875 0.125 5.875 0.125 6.875 1.125 C6.94705511 2.81108966 6.95886068 4.50000659 6.9375 6.1875 C6.92847656 7.10660156 6.91945313 8.02570313 6.91015625 8.97265625 C6.89855469 9.68292969 6.88695312 10.39320313 6.875 11.125 C6.25625 11.3725 5.6375 11.62 5 11.875 C2.52431313 13.33128639 1.92374998 14.50312506 0.875 17.125 C-8.05174617 17.7382879 -8.05174617 17.7382879 -11.75 15.625 C-13.69389306 12.09064898 -13.94299989 9.06921729 -13.125 5.125 C-9.49778097 0.24701579 -5.79221698 -0.01395715 0 0 Z " fill="#FFFFFF" transform="translate(377.125,190.875)"/>
<path d="M0 0 C1.051875 -0.00386719 1.051875 -0.00386719 2.125 -0.0078125 C4 0.125 4 0.125 6 1.125 C6.44070796 9.79225664 6.44070796 9.79225664 3 14.125 C-0.28262031 16.31341354 -1.31790898 16.37354665 -5.125 16.3125 C-6.01445312 16.30605469 -6.90390625 16.29960937 -7.8203125 16.29296875 C-10 16.125 -10 16.125 -11 15.125 C-11.44169067 12.07102448 -11.47716383 9.17469923 -11 6.125 C-7.69058894 1.9446913 -5.28299891 -0.01942279 0 0 Z " fill="#FFFFFF" transform="translate(398,133.875)"/>
</svg>
